<svg xmlns="http://www.w3.org/2000/svg" width="119.929" height="31.606" viewBox="0 0 119.929 31.606">
  <g id="logo" transform="translate(-0.038 -0.277)">
    <path id="Органическая_еда" data-name="Органическая еда" d="M108.945,31.883v-.989h-5.036v.989h-.675V30.175h.81l2.383-5.891,2.383,5.891h.809v1.708Zm-4.1-1.708h3.166l-1.583-4.155ZM38.481,24.6h.764v4.685l4.766-5v6.611h-.764V26.209l-4.766,5Zm24.944,6.147a3.033,3.033,0,0,1-1-.674,3.132,3.132,0,0,1-.675-1.031,3.57,3.57,0,0,1,0-2.589,3.141,3.141,0,0,1,.675-1.031,3.047,3.047,0,0,1,1-.674,3.162,3.162,0,0,1,1.228-.239,3.423,3.423,0,0,1,1.16.171,2.691,2.691,0,0,1,.863.522v1.007a2.452,2.452,0,0,0-.845-.68,2.6,2.6,0,0,0-1.178-.256,2.216,2.216,0,0,0-1.151.314,2.439,2.439,0,0,0-.86.868,2.7,2.7,0,0,0,0,2.576,2.416,2.416,0,0,0,.86.873,2.217,2.217,0,0,0,1.151.315,2.566,2.566,0,0,0,1.178-.261,2.537,2.537,0,0,0,.845-.675v1.007a2.675,2.675,0,0,1-.863.522,3.4,3.4,0,0,1-1.16.171A3.145,3.145,0,0,1,63.425,30.746ZM2.741,30.737a3.118,3.118,0,0,1-1.016-.683,3.079,3.079,0,0,1-.671-1.031,3.548,3.548,0,0,1,0-2.558,3.082,3.082,0,0,1,1.687-1.709,3.222,3.222,0,0,1,1.268-.247,3.216,3.216,0,0,1,1.273.247,3.147,3.147,0,0,1,1.012.683,3.079,3.079,0,0,1,.67,1.026,3.548,3.548,0,0,1,0,2.558,3.063,3.063,0,0,1-.67,1.031,3.147,3.147,0,0,1-1.012.683,3.216,3.216,0,0,1-1.273.247A3.222,3.222,0,0,1,2.741,30.737Zm.045-5.14a2.334,2.334,0,0,0-.85.882,2.752,2.752,0,0,0,0,2.536A2.317,2.317,0,0,0,4.01,30.22a2.3,2.3,0,0,0,2.073-1.205,2.745,2.745,0,0,0,0-2.536,2.347,2.347,0,0,0-.845-.882,2.324,2.324,0,0,0-1.228-.323A2.326,2.326,0,0,0,2.786,25.6Zm114.522,5.3-.8-1.888h-2.536l-.8,1.888h-.854l2.923-6.611,2.922,6.611Zm-3.03-2.608H116.2l-.962-2.266ZM96.669,30.894V24.6h3.6v.719H97.433v1.8h2.653v.719H97.433v2.339h2.833v.719Zm-8.859,0V28.376h-.764l-1.754,2.518h-.944l1.879-2.59a2.06,2.06,0,0,1-1.084-.634,1.718,1.718,0,0,1-.418-1.183,1.77,1.77,0,0,1,.283-1.008,1.862,1.862,0,0,1,.77-.652,2.511,2.511,0,0,1,1.088-.229h1.708v6.3Zm-1.933-5.306a1.234,1.234,0,0,0,0,1.795,1.5,1.5,0,0,0,.989.319h.944V25.274h-.944A1.515,1.515,0,0,0,85.877,25.588Zm-4.5,5.306-.8-1.888H78.044l-.8,1.888h-.855l2.923-6.611,2.922,6.611Zm-3.03-2.608h1.924l-.962-2.266Zm-4.973,2.608-2.608-3.058v3.058H70V24.6h.765v2.707L73.241,24.6h.944l-2.725,2.95,2.86,3.345Zm-18.436,0V24.6h3.6v.719H55.7v1.8h2.653v.719H55.7v2.339h2.833v.719Zm-4.182,0V28.376H49.318a1.83,1.83,0,0,1-1.043-.284,1.733,1.733,0,0,1-.634-.769,2.7,2.7,0,0,1-.212-1.088V24.6h.719v1.637a1.994,1.994,0,0,0,.131.737,1.189,1.189,0,0,0,.391.531,1.043,1.043,0,0,0,.647.2h1.439V24.6h.764v6.3Zm-16.458,0V27.836H30.837v3.058h-.764V24.6h.764v2.518H34.3V24.6h.765v6.3Zm-7.824,0-.8-1.888H23.138l-.8,1.888h-.854l2.922-6.611,2.923,6.611Zm-3.031-2.608h1.925l-.963-2.266Zm-6.278,2.608V24.6h3.1v.719H17.931v5.576Zm-6.907,0V24.6h1.708a2.506,2.506,0,0,1,1.093.229,1.866,1.866,0,0,1,.765.652,1.924,1.924,0,0,1,0,2.011,1.856,1.856,0,0,1-.765.656,2.506,2.506,0,0,1-1.093.229h-.944v2.518Zm.764-3.237h.944a1.577,1.577,0,0,0,.994-.3,1.194,1.194,0,0,0,0-1.75,1.6,1.6,0,0,0-.994-.293h-.944Z" fill="#27300f"/>
    <path id="Healthly" d="M64.977,19.694l2.14-4.911L63.314,6.7h3.191l2.084,5.179L70.653,6.7h2.982l-5.733,13ZM27.013,15.366a2.571,2.571,0,0,1-1.576-2.475,2.456,2.456,0,0,1,.888-2,3.9,3.9,0,0,1,2.552-.736,6.255,6.255,0,0,1,1.472.163,5.369,5.369,0,0,1,1.128.392V9.948q0-1.3-1.663-1.3a5.092,5.092,0,0,0-1.147.133,6.276,6.276,0,0,0-1,.316,4.032,4.032,0,0,0-.6.3l-.975-1.931a13.922,13.922,0,0,1,1.806-.688,7.631,7.631,0,0,1,2.284-.325,6.069,6.069,0,0,1,2.083.334,3.369,3.369,0,0,1,1.453.966A2.312,2.312,0,0,1,34.247,9.3V15.49H31.476v-1.2a2.528,2.528,0,0,1-1.2,1.041,4.149,4.149,0,0,1-1.71.354A3.834,3.834,0,0,1,27.013,15.366ZM28.685,12a.888.888,0,0,0-.325.736.948.948,0,0,0,.354.793,1.394,1.394,0,0,0,.889.277,2,2,0,0,0,1.261-.43,1.682,1.682,0,0,0,.612-1.29,4.185,4.185,0,0,0-1.7-.344A1.779,1.779,0,0,0,28.685,12Zm-11.9,3.116a4.119,4.119,0,0,1-1.73-1.6,4.675,4.675,0,0,1-.611-2.427A4.363,4.363,0,0,1,15.766,7.73,5.136,5.136,0,0,1,19.4,6.507,4.906,4.906,0,0,1,22.9,7.673a4.306,4.306,0,0,1,1.233,3.287v.4a2.8,2.8,0,0,1-.02.344H17.41a2.264,2.264,0,0,0,.631,1.395,1.869,1.869,0,0,0,1.356.5,2.3,2.3,0,0,0,2.179-1.147l2.6.631a4.92,4.92,0,0,1-4.72,2.6A5.864,5.864,0,0,1,16.789,15.117Zm.659-5.017h3.594a1.933,1.933,0,0,0-.526-1.214,1.592,1.592,0,0,0-1.175-.449A1.792,1.792,0,0,0,17.447,10.1ZM59.26,15.49V.58h2.9V15.49Zm-5.329,0V10.139a2.082,2.082,0,0,0-.286-1.194,1.13,1.13,0,0,0-.994-.411,1.519,1.519,0,0,0-1.108.411,1.594,1.594,0,0,0-.42,1.194V15.49H48.217V.583h2.905V7.9a2.773,2.773,0,0,1,1.031-1.119,3.091,3.091,0,0,1,1.644-.41,2.82,2.82,0,0,1,2.331.859,3.9,3.9,0,0,1,.688,2.485V15.49Zm-11.467,0v-6.4H40.916V6.7h1.548V3.641h2.791V6.7H46.8V9.087H45.255v6.4Zm-5.864,0V.58h2.9V15.49Zm-27.58,0V9.89H3.267v5.6H.038V2.112H3.267V6.985H9.02V2.112h3.23V15.49Z" fill="#27300f"/>
    <path id="food" d="M112.036,15.155a3.994,3.994,0,0,1-1.548-1.558,4.948,4.948,0,0,1-.592-2.5,4.943,4.943,0,0,1,.592-2.514,4.021,4.021,0,0,1,1.548-1.548,4.145,4.145,0,0,1,2.026-.526,3.424,3.424,0,0,1,3.02,1.606V.583h2.886V15.49h-2.886V14.075a3.424,3.424,0,0,1-3.02,1.606A4.145,4.145,0,0,1,112.036,15.155Zm1.519-5.7a2.2,2.2,0,0,0-.621,1.643,2.2,2.2,0,0,0,.621,1.643,2.038,2.038,0,0,0,1.481.611,1.913,1.913,0,0,0,.965-.267,2.14,2.14,0,0,0,.774-.774,2.3,2.3,0,0,0,.306-1.213,2.288,2.288,0,0,0-.306-1.223A2.171,2.171,0,0,0,116,9.106a1.922,1.922,0,0,0-.965-.267A2.039,2.039,0,0,0,113.555,9.451ZM100.9,15.107a4.475,4.475,0,0,1-1.8-1.606,4.376,4.376,0,0,1-.659-2.408,4.413,4.413,0,0,1,.659-2.427,4.482,4.482,0,0,1,1.8-1.606,6.071,6.071,0,0,1,5.151,0,4.5,4.5,0,0,1,1.787,1.606,4.406,4.406,0,0,1,.66,2.427,4.369,4.369,0,0,1-.66,2.408,4.489,4.489,0,0,1-1.787,1.606,6.071,6.071,0,0,1-5.151,0Zm1.128-5.629a2.184,2.184,0,0,0-.6,1.616,2.147,2.147,0,0,0,.6,1.6,2.051,2.051,0,0,0,2.885,0,2.147,2.147,0,0,0,.6-1.6,2.184,2.184,0,0,0-.6-1.616,2.032,2.032,0,0,0-2.885,0ZM89.456,15.107a4.469,4.469,0,0,1-1.8-1.606A4.369,4.369,0,0,1,87,11.094a4.406,4.406,0,0,1,.66-2.427,4.476,4.476,0,0,1,1.8-1.606,6.069,6.069,0,0,1,5.15,0,4.5,4.5,0,0,1,1.787,1.606,4.413,4.413,0,0,1,.659,2.427,4.376,4.376,0,0,1-.659,2.408,4.5,4.5,0,0,1-1.787,1.606,6.069,6.069,0,0,1-5.15,0Zm1.127-5.629a2.187,2.187,0,0,0-.6,1.616,2.15,2.15,0,0,0,.6,1.6,2.052,2.052,0,0,0,2.886,0,2.147,2.147,0,0,0,.6-1.6,2.184,2.184,0,0,0-.6-1.616,2.033,2.033,0,0,0-2.886,0ZM81.076,15.49v-6.4H79.968V6.7h1.108V3.45a3.179,3.179,0,0,1,.832-2.322,3.313,3.313,0,0,1,2.475-.85A3.122,3.122,0,0,1,85.94.612a4.837,4.837,0,0,1,.888.621L85.663,3.354a1.06,1.06,0,0,0-.9-.478q-.918,0-.918,1.3V6.7h2.121V9.087H83.847v6.4Z" fill="#d26a22"/>
  </g>
</svg>
